<?xml version="1.0" encoding="utf-8"?>
<!-- Generator: Adobe Illustrator 19.2.1, SVG Export Plug-In . SVG Version: 6.00 Build 0)  -->
<svg version="1.1" id="Layer_1" xmlns="http://www.w3.org/2000/svg" xmlns:xlink="http://www.w3.org/1999/xlink" x="0px" y="0px"
	 viewBox="0 0 216 288" style="enable-background:new 0 0 216 288;" xml:space="preserve">
<style type="text/css">
	.st0{fill:#30A6C6;}
	.st1{fill:#231F20;}
	.st2{fill:none;stroke:#231F20;stroke-width:0.5;stroke-miterlimit:10;}
	.st3{fill:#231F20;stroke:#231F20;stroke-miterlimit:10;}
</style>
<polygon class="st0" points="8.6,0 206.9,0 206.9,220.8 107.8,278.2 8.6,221.2 "/>
<g>
	<g>
		<g>
			<g id="XMLID_2_">
				<g>
					<path class="st1" d="M101.2,130.2c1-0.2,3.3,0.1,4.7,0.1c3.2,0,7.8,1.1,12.7,3.3c-6-2.5-10.3-2-13.3-2.6
						c-1.1-0.2-3.2-0.4-4.2-0.1c-2.1,0.5-6.4,1.8-10.6,5.8C94.6,132.3,98.9,130.7,101.2,130.2z"/>
					<path class="st1" d="M134.4,145.3c-4.6-4.8-8.7-7.9-12.2-10C126.6,137.8,131,141.1,134.4,145.3z"/>
					<path class="st1" d="M166.9,159.3c0.2,0,0.4,0,0.5,0.1C167.2,159.3,167,159.3,166.9,159.3z"/>
					<path class="st1" d="M134.7,145.6c8,8.4,24.3,12.5,31.4,13.6c-7.1-1-24.3-4.8-31.7-13.9C134.5,145.4,134.6,145.5,134.7,145.6z"
						/>
					<path class="st1" d="M108.3,231.5c-48.1,19.3-40.4-19.9-38.4-27.9c0.2-0.8,0.5-1.5,1-2.2c2-2.8,8.2-13.4,10.1-39.4
						c1-13,5-20.7,9.4-25.3c0,0,0.1-0.1,0.1-0.1c4.2-4,8.5-5.3,10.6-5.8c1-0.2,3.2-0.1,4.2,0.1c3.1,0.6,7.3,0.1,13.3,2.6
						c0,0,0.1,0,0.2,0.1c1.1,0.5,2.3,1.1,3.4,1.7c0,0,0,0,0,0c3.5,2,7.6,5.1,12.2,10c0,0,0,0,0,0c0,0,0,0,0,0
						c7.4,9.1,24.6,12.8,31.7,13.9c0.2,0,0.5,0.1,0.7,0.1c0,0,0,0,0,0c0.2,0,0.4,0,0.5,0.1c0.1,0,0.2,0,0.4,0c1,0.1,1.9,0.9,2.8,1.5
						c31.9,21.7,8.9,42.2,3.5,46.1c-0.6,0.5-1.3,0.7-2.1,0.9c-1,0.1-1.9,0.3-2.8,0.4c-0.2-0.1-0.3-0.2-0.5-0.4c0,0,0,0-0.1-0.1
						c-0.5-0.4-1-0.8-1.6-1.3c-1-0.9-2-1.8-2.9-2.8c-0.5-0.5-0.9-1-1.3-1.5c-0.4-0.5-0.9-1-1.3-1.6c-0.4-0.5-0.8-1.1-1.2-1.6
						c-0.4-0.5-0.8-1.1-1.1-1.7c-0.7-1.1-1.4-2.3-2-3.5c-0.6-1.2-1.2-2.4-1.7-3.7c-0.4-0.9-0.7-1.8-1-2.7c0-0.1,0.1-0.7,0.1-0.7
						c2.2-3.3,3-6,3.6-7.8c0.3-0.8,0.1-1.7-0.5-2.4c-10.1-12.5-24.6-12.8-28.5-12.4c-0.2,0-5.1,1-5.3,1c-2.3,0.6-14.2,4.1-19,8
						c-5.3,4.3-1.4,4.3-2.3,8.4c-0.9,4.1-12,7.1-12,7.1c-0.5-0.7-3.6,0.8-3.6,0.8c-4,1.7,0.6,8.3,0.6,8.3
						c-1.2,10.2,10.7,13.7,10.7,13.7s3.1,2.6,9.2,0.5c7.7-2.8,11,1,11,1s3.1,9.3-0.2,14.3l0.2-0.4l0,0l-0.1,0
						C115.7,228.3,112.5,229.8,108.3,231.5z"/>
					<path class="st1" d="M69.9,203.6c-2,8-9.6,47.2,38.4,27.9c4.2-1.7,7.4-3.3,9.9-4.7l0.1,0l0,0l-0.2,0.4c-5.8,2.7-5.4,3-9.7,4.7
						c-10,4.1-18.3,5.8-24.7,5.2c-4.1-0.4-7.4-1.7-10-3.9c-8.9-7.8-5.5-24.7-4.3-29.7c0.2-0.8,0.6-1.6,1.1-2.3
						c1.9-2.6,8.1-13.2,10-39.2c1-13.3,5.3-20.9,9.9-25.3C86,141.3,81.9,149,81,162c-1.9,26-8.1,36.6-10.1,39.4
						C70.4,202.1,70.1,202.8,69.9,203.6z"/>
					<path class="st1" d="M122.2,135.3c-1.1-0.6-2.3-1.2-3.4-1.7C119.9,134.1,121,134.6,122.2,135.3z"/>
					<path class="st1" d="M167.7,208c-9-7.4-12.4-17-13.3-20.3c0-0.1,0.1-0.1,0.1-0.2c0.3,0.9,0.6,1.8,1,2.7
						c0.5,1.3,1.1,2.5,1.7,3.7c0.6,1.2,1.3,2.4,2,3.5c0.4,0.6,0.7,1.1,1.1,1.7c0.4,0.6,0.8,1.1,1.2,1.6c0.4,0.5,0.8,1.1,1.3,1.6
						c0.4,0.5,0.9,1,1.3,1.5c0.9,1,1.9,1.9,2.9,2.8c0.5,0.4,1,0.9,1.6,1.3c0,0,0.1,0,0.1,0.1c0.2,0.1,0.3,0.2,0.5,0.4
						c0.9-0.1,1.8-0.3,2.8-0.4c0.8-0.1,1.5-0.4,2.1-0.9c5.3-3.9,28.4-24.4-3.5-46.1c-0.8-0.6-1.8-1.4-2.8-1.5c1.1,0.1,2.1,0.5,3,1.1
						c11.2,7.6,17,15.7,17.2,24.1c0.2,11.6-10.4,20.3-13.6,22.7c-0.7,0.5-1.5,0.8-2.3,0.9c-0.8,0.1-1.6,0.2-2.4,0.3
						c-0.3,0-0.7,0.1-1,0.1c-0.2-0.1-0.3-0.2-0.5-0.4C168,208.3,167.8,208.1,167.7,208z"/>
				</g>
				<g>
				</g>
			</g>
		</g>
		<path class="st2" d="M135.6,169.9c0.1,0.3,4.9,4.8,2,20.4c-3,16.4,16.1-1.1,18.5-5.3"/>
	</g>
	<path class="st3" d="M29.9,149.4c0,0-8,16.1,12.7,32.3s11.4-20,11.4-20s-4.2-11.9-15.6-18.3c-11.4-6.4-4.7-11.9-4.7-11.9
		S23.1,138,29.9,149.4z"/>
	<path class="st3" d="M142.9,100.1c0,0,17.6,3.4,17.7,29.8c0.1,26.3-22.7-3.1-22.7-3.1s-6.8-10.6-4.9-23.6s-6.6-11-6.6-11
		S138,87.7,142.9,100.1z"/>
	<path class="st3" d="M49.4,121.7c0,0,4.2,11.7,13.5,15.9c8.7,4,12.1-5.7,12-12.2c0-0.8-0.2-1.5-0.1-2.3c0.2-2.2-0.5-6.8-6.6-14.4
		c-8.9-11.1-13.2-9.4-13.2-9.4s-5-2.5-5.7-4.7c0,0,0.2,5.5,0,8.8C49.3,103.4,44,107.2,49.4,121.7z"/>
	<path class="st3" d="M105.6,87c0,0,8.7,10,7.9,21.1c-0.7,10.4-8.5,8.5-18.2,5.3c-0.8-0.3-3.1-1.8-3.9-2.2c-2.1-1-4.3-3.1-8.2-12.8
		c-5.7-14.2-1.2-17.4-1.2-17.4s0.2-6-1.5-7.9c0,0,5,3,8.1,4.4C88.8,77.6,94.9,74.4,105.6,87z"/>
</g>
</svg>
