<?xml version="1.0" encoding="utf-8"?>
<!-- Generator: Adobe Illustrator 19.2.1, SVG Export Plug-In . SVG Version: 6.00 Build 0)  -->
<svg version="1.1" id="Layer_1" xmlns="http://www.w3.org/2000/svg" xmlns:xlink="http://www.w3.org/1999/xlink" x="0px" y="0px"
	 viewBox="0 0 220.3 37" style="enable-background:new 0 0 220.3 37;" xml:space="preserve">
<style type="text/css">
	.st0{fill:#FFFFFF;}
</style>
<g>
	<path class="st0" d="M23.1,18.3c0,13.6-8.4,16.8-15.5,16.8h-7.7V2h6.8C15.1,2,23.1,4.6,23.1,18.3z M4.1,31.8H8
		c5.3,0,10.6-2.3,10.6-13.4c0-11.4-5.6-13-11-13H4.1V31.8z"/>
	<path class="st0" d="M33,5.3v11.2h11.3v3.4H33v11.8h13.9v3.4h-18V2h17.7l-0.5,3.4H33z"/>
	<path class="st0" d="M74.4,5.2L72,7.9c-2.4-2.1-4.7-3-7.5-3c-3.5,0-6.2,1.7-6.2,4.9c0,2.9,1.4,4.3,7.4,6.2c5.4,1.6,9.7,3.8,9.7,10
		c0,5.8-4.3,9.8-11.6,9.8c-4.7,0-8.4-1.6-11.1-4.2l2.5-2.7c2.3,2.2,5,3.5,8.6,3.5c4,0,7.3-2.1,7.3-6.2c0-3.4-1.6-4.9-7.3-6.6
		c-6.5-2-9.7-4.4-9.7-9.5c0-5,4.2-8.5,10.3-8.5C68.8,1.4,71.7,2.7,74.4,5.2z"/>
	<path class="st0" d="M94.3,5.5v29.6h-4.1V5.5h-9.5V2h23.4l-0.5,3.6H94.3z"/>
	<path class="st0" d="M112.4,35.1V2h4.2v33.1H112.4z"/>
	<path class="st0" d="M143.8,35.1l-14-28.6c0.2,2.6,0.6,6.5,0.6,12.6v16h-3.9V2h5.4l14.1,28.6c-0.1-0.9-0.5-6-0.5-10.1V2h3.9v33.1
		H143.8z"/>
	<path class="st0" d="M171.5,35.1h-4.2V22.3L156.6,2h4.6l8.3,16.7L177.8,2h4.4l-10.6,20.3V35.1z"/>
	<path class="st0" d="M194.9,1.8c0,0.7-0.2,1.4-0.8,2.6l-3.1,6.6h-2.6l1.9-7c-0.8-0.6-1.2-1.3-1.2-2.3c0-1.5,1.3-2.8,2.9-2.8
		C193.6-1,194.9,0.2,194.9,1.8z"/>
	<path class="st0" d="M219.3,5.2l-2.4,2.6c-2.4-2.1-4.7-3-7.5-3c-3.5,0-6.2,1.7-6.2,4.9c0,2.9,1.4,4.3,7.4,6.2
		c5.4,1.6,9.7,3.8,9.7,10c0,5.8-4.3,9.8-11.6,9.8c-4.7,0-8.4-1.6-11.1-4.2l2.5-2.7c2.3,2.2,5,3.5,8.6,3.5c4,0,7.3-2.1,7.3-6.2
		c0-3.4-1.6-4.9-7.3-6.6c-6.5-2-9.7-4.4-9.7-9.5c0-5,4.2-8.5,10.3-8.5C213.7,1.4,216.6,2.7,219.3,5.2z"/>
</g>
</svg>
